<?xml version="1.0" encoding="UTF-8" standalone="no"?>
<!DOCTYPE svg PUBLIC "-//W3C//DTD SVG 1.1//EN"
 "http://www.w3.org/Graphics/SVG/1.1/DTD/svg11.dtd">
<!-- Generated by graphviz version 2.40.1 (20161225.0304)
 -->
<!-- Title: G Pages: 1 -->
<svg width="566pt" height="116pt"
 viewBox="0.00 0.00 566.00 116.00" xmlns="http://www.w3.org/2000/svg" xmlns:xlink="http://www.w3.org/1999/xlink">
<g id="graph0" class="graph" transform="scale(1 1) rotate(0) translate(4 112)">
<title>G</title>
<polygon fill="#ffffff" stroke="transparent" points="-4,4 -4,-112 562,-112 562,4 -4,4"/>
<!-- x0i -->
<g id="node1" class="node">
<title>x0i</title>
<ellipse fill="#000000" stroke="#000000" cx="52" cy="-90" rx="1.8" ry="1.8"/>
</g>
<!-- x0 -->
<g id="node2" class="node">
<title>x0</title>
<ellipse fill="#ffffff" stroke="#000000" cx="99" cy="-90" rx="27" ry="18"/>
<text text-anchor="start" x="92" y="-86.8" font-family="Times,serif" font-size="14.00" fill="#000000">x</text>
<text text-anchor="start" x="99" y="-86.8" font-family="Times,serif" baseline-shift="sub" font-size="14.00" fill="#000000">0</text>
</g>
<!-- x0i&#45;&gt;x0 -->
<g id="edge1" class="edge">
<title>x0i&#45;&gt;x0</title>
<path fill="none" stroke="#000000" stroke-width="2" d="M53.8359,-90C59.8343,-90 65.8326,-90 71.831,-90"/>
</g>
<!-- x1 -->
<g id="node3" class="node">
<title>x1</title>
<ellipse fill="#ffffff" stroke="#000000" cx="171" cy="-90" rx="27" ry="18"/>
<text text-anchor="start" x="164" y="-86.8" font-family="Times,serif" font-size="14.00" fill="#000000">x</text>
<text text-anchor="start" x="171" y="-86.8" font-family="Times,serif" baseline-shift="sub" font-size="14.00" fill="#000000">1</text>
</g>
<!-- x0&#45;&gt;x1 -->
<g id="edge2" class="edge">
<title>x0&#45;&gt;x1</title>
<path fill="none" stroke="#000000" stroke-width="2" d="M126,-90C128.6147,-90 131.2295,-90 133.8442,-90"/>
<polygon fill="#000000" stroke="#000000" stroke-width="2" points="133.9297,-93.5001 143.9297,-90 133.9297,-86.5001 133.9297,-93.5001"/>
</g>
<!-- l0 -->
<g id="node6" class="node">
<title>l0</title>
<ellipse fill="#ffffff" stroke="#000000" cx="27" cy="-18" rx="27" ry="18"/>
<text text-anchor="start" x="21.5552" y="-14.8" font-family="Times,serif" font-size="14.00" fill="#000000">l</text>
<text text-anchor="start" x="25.4448" y="-14.8" font-family="Times,serif" baseline-shift="sub" font-size="14.00" fill="#000000">0</text>
</g>
<!-- x0&#45;&gt;l0 -->
<g id="edge3" class="edge">
<title>x0&#45;&gt;l0</title>
<path fill="none" stroke="#000000" stroke-dasharray="5,2" d="M83.7307,-74.7307C73.803,-64.803 60.6847,-51.6847 49.5637,-40.5637"/>
<polygon fill="#000000" stroke="#000000" points="51.7933,-37.8436 42.2473,-33.2473 46.8436,-42.7933 51.7933,-37.8436"/>
</g>
<!-- l1 -->
<g id="node7" class="node">
<title>l1</title>
<ellipse fill="#ffffff" stroke="#000000" cx="99" cy="-18" rx="27" ry="18"/>
<text text-anchor="start" x="93.5552" y="-14.8" font-family="Times,serif" font-size="14.00" fill="#000000">l</text>
<text text-anchor="start" x="97.4448" y="-14.8" font-family="Times,serif" baseline-shift="sub" font-size="14.00" fill="#000000">1</text>
</g>
<!-- x0&#45;&gt;l1 -->
<g id="edge4" class="edge">
<title>x0&#45;&gt;l1</title>
<path fill="none" stroke="#000000" stroke-width="2" d="M99,-71.8314C99,-64.131 99,-54.9743 99,-46.4166"/>
<polygon fill="#000000" stroke="#000000" stroke-width="2" points="102.5001,-46.4132 99,-36.4133 95.5001,-46.4133 102.5001,-46.4132"/>
</g>
<!-- l2 -->
<g id="node8" class="node">
<title>l2</title>
<ellipse fill="#ffffff" stroke="#000000" cx="171" cy="-18" rx="27" ry="18"/>
<text text-anchor="start" x="165.5552" y="-14.8" font-family="Times,serif" font-size="14.00" fill="#000000">l</text>
<text text-anchor="start" x="169.4448" y="-14.8" font-family="Times,serif" baseline-shift="sub" font-size="14.00" fill="#000000">2</text>
</g>
<!-- x0&#45;&gt;l2 -->
<g id="edge5" class="edge">
<title>x0&#45;&gt;l2</title>
<path fill="none" stroke="#000000" stroke-width="2" d="M114.2693,-74.7307C124.197,-64.803 137.3153,-51.6847 148.4363,-40.5637"/>
<polygon fill="#000000" stroke="#000000" stroke-width="2" points="151.1564,-42.7933 155.7527,-33.2473 146.2067,-37.8436 151.1564,-42.7933"/>
</g>
<!-- x1&#45;&gt;l1 -->
<g id="edge6" class="edge">
<title>x1&#45;&gt;l1</title>
<path fill="none" stroke="#000000" stroke-width="2" d="M155.7307,-74.7307C145.803,-64.803 132.6847,-51.6847 121.5637,-40.5637"/>
<polygon fill="#000000" stroke="#000000" stroke-width="2" points="123.7933,-37.8436 114.2473,-33.2473 118.8436,-42.7933 123.7933,-37.8436"/>
</g>
<!-- x1&#45;&gt;l2 -->
<g id="edge7" class="edge">
<title>x1&#45;&gt;l2</title>
<path fill="none" stroke="#000000" stroke-width="2" d="M171,-71.8314C171,-64.131 171,-54.9743 171,-46.4166"/>
<polygon fill="#000000" stroke="#000000" stroke-width="2" points="174.5001,-46.4132 171,-36.4133 167.5001,-46.4133 174.5001,-46.4132"/>
</g>
<!-- l3 -->
<g id="node9" class="node">
<title>l3</title>
<ellipse fill="#ffffff" stroke="#000000" cx="243" cy="-18" rx="27" ry="18"/>
<text text-anchor="start" x="237.5552" y="-14.8" font-family="Times,serif" font-size="14.00" fill="#000000">l</text>
<text text-anchor="start" x="241.4448" y="-14.8" font-family="Times,serif" baseline-shift="sub" font-size="14.00" fill="#000000">3</text>
</g>
<!-- x1&#45;&gt;l3 -->
<g id="edge8" class="edge">
<title>x1&#45;&gt;l3</title>
<path fill="none" stroke="#000000" d="M186.2693,-74.7307C196.197,-64.803 209.3153,-51.6847 220.4363,-40.5637"/>
<polygon fill="#000000" stroke="#000000" points="223.1564,-42.7933 227.7527,-33.2473 218.2067,-37.8436 223.1564,-42.7933"/>
</g>
<!-- l4 -->
<g id="node10" class="node">
<title>l4</title>
<ellipse fill="#ffff00" stroke="#000000" cx="315" cy="-18" rx="27" ry="18"/>
<text text-anchor="start" x="309.5552" y="-14.8" font-family="Times,serif" font-size="14.00" fill="#000000">l</text>
<text text-anchor="start" x="313.4448" y="-14.8" font-family="Times,serif" baseline-shift="sub" font-size="14.00" fill="#000000">4</text>
</g>
<!-- x1&#45;&gt;l4 -->
<g id="edge9" class="edge">
<title>x1&#45;&gt;l4</title>
<path fill="none" stroke="#000000" d="M192.8705,-79.0647C217.2222,-66.8889 256.762,-47.119 284.2285,-33.3858"/>
<polygon fill="#000000" stroke="#000000" points="286.0165,-36.4049 293.3955,-28.8022 282.886,-30.1439 286.0165,-36.4049"/>
</g>
<!-- x2 -->
<g id="node4" class="node">
<title>x2</title>
<ellipse fill="#ffffff" stroke="#000000" cx="279" cy="-90" rx="27" ry="18"/>
<text text-anchor="start" x="272" y="-86.8" font-family="Times,serif" font-size="14.00" fill="#000000">x</text>
<text text-anchor="start" x="279" y="-86.8" font-family="Times,serif" baseline-shift="sub" font-size="14.00" fill="#000000">2</text>
</g>
<!-- x2&#45;&gt;l2 -->
<g id="edge10" class="edge">
<title>x2&#45;&gt;l2</title>
<path fill="none" stroke="#000000" d="M259.6918,-77.1278C242.6445,-65.763 217.5981,-49.0654 198.4656,-36.3104"/>
<polygon fill="#000000" stroke="#000000" points="200.4031,-33.3956 190.1411,-30.7607 196.5201,-39.2199 200.4031,-33.3956"/>
</g>
<!-- x2&#45;&gt;l3 -->
<g id="edge11" class="edge">
<title>x2&#45;&gt;l3</title>
<path fill="none" stroke="#000000" d="M270.2854,-72.5708C266.0403,-64.0807 260.8464,-53.6929 256.1337,-44.2674"/>
<polygon fill="#000000" stroke="#000000" points="259.237,-42.6477 251.6343,-35.2687 252.976,-45.7782 259.237,-42.6477"/>
</g>
<!-- x2&#45;&gt;l4 -->
<g id="edge12" class="edge">
<title>x2&#45;&gt;l4</title>
<path fill="none" stroke="#000000" d="M287.7146,-72.5708C291.9597,-64.0807 297.1536,-53.6929 301.8663,-44.2674"/>
<polygon fill="#000000" stroke="#000000" points="305.024,-45.7782 306.3657,-35.2687 298.763,-42.6477 305.024,-45.7782"/>
</g>
<!-- l5 -->
<g id="node11" class="node">
<title>l5</title>
<ellipse fill="#ffff00" stroke="#000000" cx="387" cy="-18" rx="27" ry="18"/>
<text text-anchor="start" x="381.5552" y="-14.8" font-family="Times,serif" font-size="14.00" fill="#000000">l</text>
<text text-anchor="start" x="385.4448" y="-14.8" font-family="Times,serif" baseline-shift="sub" font-size="14.00" fill="#000000">5</text>
</g>
<!-- x2&#45;&gt;l5 -->
<g id="edge13" class="edge">
<title>x2&#45;&gt;l5</title>
<path fill="none" stroke="#00ff00" d="M298.3082,-77.1278C315.3555,-65.763 340.4019,-49.0654 359.5344,-36.3104"/>
<polygon fill="#00ff00" stroke="#00ff00" points="361.4799,-39.2199 367.8589,-30.7607 357.5969,-33.3956 361.4799,-39.2199"/>
</g>
<!-- x3 -->
<g id="node5" class="node">
<title>x3</title>
<ellipse fill="#00ff00" stroke="#000000" cx="423" cy="-90" rx="27" ry="18"/>
<text text-anchor="start" x="416" y="-86.8" font-family="Times,serif" font-size="14.00" fill="#000000">x</text>
<text text-anchor="start" x="423" y="-86.8" font-family="Times,serif" baseline-shift="sub" font-size="14.00" fill="#000000">3</text>
</g>
<!-- x3&#45;&gt;l4 -->
<g id="edge14" class="edge">
<title>x3&#45;&gt;l4</title>
<path fill="none" stroke="#ff0000" d="M403.6918,-77.1278C386.6445,-65.763 361.5981,-49.0654 342.4656,-36.3104"/>
<polygon fill="#ff0000" stroke="#ff0000" points="344.4031,-33.3956 334.1411,-30.7607 340.5201,-39.2199 344.4031,-33.3956"/>
</g>
<!-- x3&#45;&gt;l5 -->
<g id="edge15" class="edge">
<title>x3&#45;&gt;l5</title>
<path fill="none" stroke="#00ff00" d="M414.2854,-72.5708C410.0403,-64.0807 404.8464,-53.6929 400.1337,-44.2674"/>
<polygon fill="#00ff00" stroke="#00ff00" points="403.237,-42.6477 395.6343,-35.2687 396.976,-45.7782 403.237,-42.6477"/>
</g>
<!-- l6 -->
<g id="node12" class="node">
<title>l6</title>
<ellipse fill="#ffff00" stroke="#000000" cx="459" cy="-18" rx="27" ry="18"/>
<text text-anchor="start" x="453.5552" y="-14.8" font-family="Times,serif" font-size="14.00" fill="#000000">l</text>
<text text-anchor="start" x="457.4448" y="-14.8" font-family="Times,serif" baseline-shift="sub" font-size="14.00" fill="#000000">6</text>
</g>
<!-- x3&#45;&gt;l6 -->
<g id="edge16" class="edge">
<title>x3&#45;&gt;l6</title>
<path fill="none" stroke="#0000ff" stroke-dasharray="5,2" d="M431.7146,-72.5708C435.9597,-64.0807 441.1536,-53.6929 445.8663,-44.2674"/>
<polygon fill="#0000ff" stroke="#0000ff" points="449.024,-45.7782 450.3657,-35.2687 442.763,-42.6477 449.024,-45.7782"/>
</g>
<!-- l7 -->
<g id="node13" class="node">
<title>l7</title>
<ellipse fill="#ffff00" stroke="#000000" cx="531" cy="-18" rx="27" ry="18"/>
<text text-anchor="start" x="525.5552" y="-14.8" font-family="Times,serif" font-size="14.00" fill="#000000">l</text>
<text text-anchor="start" x="529.4448" y="-14.8" font-family="Times,serif" baseline-shift="sub" font-size="14.00" fill="#000000">7</text>
</g>
<!-- x3&#45;&gt;l7 -->
<g id="edge17" class="edge">
<title>x3&#45;&gt;l7</title>
<path fill="none" stroke="#0000ff" stroke-dasharray="5,2" d="M442.3082,-77.1278C459.3555,-65.763 484.4019,-49.0654 503.5344,-36.3104"/>
<polygon fill="#0000ff" stroke="#0000ff" points="505.4799,-39.2199 511.8589,-30.7607 501.5969,-33.3956 505.4799,-39.2199"/>
</g>
</g>
</svg>
