<?xml version="1.0" encoding="UTF-8" standalone="no"?>
<!DOCTYPE svg PUBLIC "-//W3C//DTD SVG 1.1//EN"
 "http://www.w3.org/Graphics/SVG/1.1/DTD/svg11.dtd">
<!-- Generated by graphviz version 2.40.1 (20161225.0304)
 -->
<!-- Title: structs Pages: 1 -->
<svg width="910pt" height="319pt"
 viewBox="0.00 0.00 909.57 318.87" xmlns="http://www.w3.org/2000/svg" xmlns:xlink="http://www.w3.org/1999/xlink">
<g id="graph0" class="graph" transform="scale(1 1) rotate(0) translate(4 314.8654)">
<title>structs</title>
<polygon fill="#ffffff" stroke="transparent" points="-4,4 -4,-314.8654 905.5748,-314.8654 905.5748,4 -4,4"/>
<g id="clust1" class="cluster">
<title>cluster_0</title>
<polygon fill="none" stroke="#0000ff" points="8,-34.8654 8,-302.8654 374.6805,-302.8654 374.6805,-34.8654 8,-34.8654"/>
<text text-anchor="middle" x="191.3402" y="-290.8654" font-family="Verdana" font-size="10.00" fill="#000000">FRAME i</text>
</g>
<g id="clust2" class="cluster">
<title>cluster_0_l</title>
<polygon fill="none" stroke="#000000" points="16,-176.8654 16,-274.8654 156.7549,-274.8654 156.7549,-176.8654 16,-176.8654"/>
<text text-anchor="middle" x="86.3774" y="-262.8654" font-family="Verdana" font-size="10.00" fill="#000000">keypoints</text>
</g>
<g id="clust3" class="cluster">
<title>cluster_0_r</title>
<polygon fill="none" stroke="#000000" points="224.6817,-112.8654 224.6817,-272.8654 366.6805,-272.8654 366.6805,-112.8654 224.6817,-112.8654"/>
<text text-anchor="middle" x="295.6811" y="-260.8654" font-family="Verdana" font-size="10.00" fill="#000000">keypoints and landmarks</text>
</g>
<g id="clust4" class="cluster">
<title>cluster_1</title>
<polygon fill="none" stroke="#0000ff" points="529.8943,-31.8654 529.8943,-299.8654 896.5748,-299.8654 896.5748,-31.8654 529.8943,-31.8654"/>
<text text-anchor="middle" x="713.2346" y="-287.8654" font-family="Verdana" font-size="10.00" fill="#000000">FRAME j</text>
</g>
<g id="clust5" class="cluster">
<title>cluster_1_l</title>
<polygon fill="none" stroke="#0000ff" points="537.8943,-173.8654 537.8943,-271.8654 678.6492,-271.8654 678.6492,-173.8654 537.8943,-173.8654"/>
<text text-anchor="middle" x="608.2718" y="-259.8654" font-family="Verdana" font-size="10.00" fill="#000000">keypoints</text>
</g>
<g id="clust6" class="cluster">
<title>cluster_1_r</title>
<polygon fill="none" stroke="#000000" points="746.5761,-109.8654 746.5761,-269.8654 888.5748,-269.8654 888.5748,-109.8654 746.5761,-109.8654"/>
<text text-anchor="middle" x="817.5754" y="-257.8654" font-family="Verdana" font-size="10.00" fill="#000000">keypoints and landmarks</text>
</g>
<!-- fr_i_l -->
<g id="node1" class="node">
<title>fr_i_l</title>
<polygon fill="#ffff00" stroke="#000000" points="24,-185.6354 24,-246.0954 148.7549,-246.0954 148.7549,-185.6354 24,-185.6354"/>
<text text-anchor="middle" x="86.3774" y="-234.0954" font-family="Verdana" font-size="10.00" fill="#000000">kp_m_prev_lm_ind</text>
<polyline fill="none" stroke="#000000" points="24,-225.9421 148.7549,-225.9421 "/>
<text text-anchor="middle" x="86.3774" y="-213.9421" font-family="Verdana" font-size="10.00" fill="#000000">kp_m_prev_cand_ind</text>
<polyline fill="none" stroke="#000000" points="24,-205.7888 148.7549,-205.7888 "/>
<text text-anchor="middle" x="86.3774" y="-193.7888" font-family="Verdana" font-size="10.00" fill="#000000">kp_unmatched</text>
</g>
<!-- fr_i_r -->
<g id="node2" class="node">
<title>fr_i_r</title>
<path fill="#00ff00" stroke="#000000" d="M265.4531,-179.549C265.4531,-179.549 324.9091,-179.549 324.9091,-179.549 330.9091,-179.549 336.9091,-185.549 336.9091,-191.549 336.9091,-191.549 336.9091,-232.1818 336.9091,-232.1818 336.9091,-238.1818 330.9091,-244.1818 324.9091,-244.1818 324.9091,-244.1818 265.4531,-244.1818 265.4531,-244.1818 259.4531,-244.1818 253.4531,-238.1818 253.4531,-232.1818 253.4531,-232.1818 253.4531,-191.549 253.4531,-191.549 253.4531,-185.549 259.4531,-179.549 265.4531,-179.549"/>
<text text-anchor="middle" x="295.1811" y="-232.1818" font-family="Verdana" font-size="10.00" fill="#000000">kp_lm_ind </text>
<text text-anchor="middle" x="295.1811" y="-220.0285" font-family="Verdana" font-size="10.00" fill="#000000">  </text>
<polyline fill="none" stroke="#000000" points="253.4531,-211.8654 336.9091,-211.8654 "/>
<text text-anchor="middle" x="295.1811" y="-199.8654" font-family="Verdana" font-size="10.00" fill="#000000">kp_cand_ind </text>
<text text-anchor="middle" x="295.1811" y="-187.7121" font-family="Verdana" font-size="10.00" fill="#000000">  </text>
</g>
<!-- fr_i_l&#45;&gt;fr_i_r -->
<g id="edge1" class="edge">
<title>fr_i_l:M1_i&#45;&gt;fr_i_r:kp_lm_ind</title>
<path fill="none" stroke="#000000" d="M148.3774,-215.8654C191.5984,-215.8654 204.3542,-226.0637 242.8149,-227.6571"/>
<polygon fill="#000000" stroke="#000000" points="243.1128,-231.1637 253.1811,-227.8654 243.2535,-224.1652 243.1128,-231.1637"/>
</g>
<!-- fr_i_l&#45;&gt;fr_i_r -->
<g id="edge2" class="edge">
<title>fr_i_l:M2_i&#45;&gt;fr_i_r:kp_lm_ind</title>
<path fill="none" stroke="#000000" d="M148.3774,-235.8654C191.4427,-235.8654 204.4733,-229.0666 242.8457,-228.0043"/>
<polygon fill="#000000" stroke="#000000" points="243.2291,-231.4995 253.1811,-227.8654 243.1349,-224.5002 243.2291,-231.4995"/>
</g>
<!-- fr_i_l&#45;&gt;fr_i_r -->
<g id="edge3" class="edge">
<title>fr_i_l:UM_i&#45;&gt;fr_i_r:kp_cand_ind</title>
<path fill="none" stroke="#000000" d="M148.3774,-195.8654C191.3178,-195.8654 204.569,-195.8654 242.8704,-195.8654"/>
<polygon fill="#000000" stroke="#000000" points="243.1811,-199.3655 253.1811,-195.8654 243.1811,-192.3655 243.1811,-199.3655"/>
</g>
<!-- fr_j_l -->
<g id="node6" class="node">
<title>fr_j_l</title>
<polygon fill="#ffff00" stroke="#000000" points="545.8943,-182.6354 545.8943,-243.0954 670.6492,-243.0954 670.6492,-182.6354 545.8943,-182.6354"/>
<text text-anchor="middle" x="608.2718" y="-231.0954" font-family="Verdana" font-size="10.00" fill="#000000">kp_m_prev_lm_ind</text>
<polyline fill="none" stroke="#000000" points="545.8943,-222.9421 670.6492,-222.9421 "/>
<text text-anchor="middle" x="608.2718" y="-210.9421" font-family="Verdana" font-size="10.00" fill="#000000">kp_m_prev_cand_ind</text>
<polyline fill="none" stroke="#000000" points="545.8943,-202.7888 670.6492,-202.7888 "/>
<text text-anchor="middle" x="608.2718" y="-190.7888" font-family="Verdana" font-size="10.00" fill="#000000">kp_unmatched</text>
</g>
<!-- fr_i_r&#45;&gt;fr_j_l -->
<g id="edge7" class="edge">
<title>fr_i_r:kp_lm_ind&#45;&gt;fr_j_l:M2_j</title>
<path fill="none" stroke="#000000" d="M347.2486,-227.8856C428.6445,-228.2162 454.7357,-232.5098 536.0715,-232.8447"/>
<polygon fill="#000000" stroke="#000000" points="347.1881,-224.3855 337.1811,-227.8654 347.174,-231.3855 347.1881,-224.3855"/>
<polygon fill="#000000" stroke="#000000" points="536.2647,-236.345 546.2718,-232.8654 536.2789,-229.3451 536.2647,-236.345"/>
<text text-anchor="middle" x="452.2874" y="-234.6654" font-family="Times,serif" font-size="14.00" fill="#000000">1. match and PNP</text>
</g>
<!-- fr_i_r&#45;&gt;fr_j_l -->
<g id="edge8" class="edge">
<title>fr_i_r:kp_cand_ind&#45;&gt;fr_j_l:M1_j</title>
<path fill="none" stroke="#000000" d="M347.461,-195.8976C421.3828,-196.3731 443.4879,-202.0739 521.8943,-209.8654 528.344,-210.5064 531.8803,-211.4438 535.9741,-212.0997"/>
<polygon fill="#000000" stroke="#000000" points="347.192,-192.3968 337.1811,-195.8654 347.1701,-199.3968 347.192,-192.3968"/>
<polygon fill="#000000" stroke="#000000" points="536.0397,-215.6141 546.2718,-212.8654 536.5589,-208.6334 536.0397,-215.6141"/>
<text text-anchor="middle" x="452.2874" y="-212.6654" font-family="Times,serif" font-size="14.00" fill="#000000">2. match and Triangulate</text>
</g>
<!-- lm_i -->
<g id="node3" class="node">
<title>lm_i</title>
<polygon fill="#00ff00" stroke="#000000" points="295.1811,-161.1732 234.6824,-130.7115 355.6798,-130.7115 295.1811,-161.1732"/>
<text text-anchor="middle" x="295.1811" y="-138.9421" font-family="Verdana" font-size="10.00" fill="#000000">lm_ind</text>
</g>
<!-- lm_j -->
<g id="node8" class="node">
<title>lm_j</title>
<polygon fill="#00ff00" stroke="#000000" points="817.0754,-158.1732 756.5767,-127.7115 877.5741,-127.7115 817.0754,-158.1732"/>
<text text-anchor="middle" x="817.0754" y="-135.9421" font-family="Verdana" font-size="10.00" fill="#000000">lm_ind</text>
</g>
<!-- lm_i&#45;&gt;lm_j -->
<g id="edge9" class="edge">
<title>lm_i:e&#45;&gt;lm_j:w</title>
<path fill="none" stroke="#000000" d="M336.1811,-140.8654C435.8535,-140.8654 433.6762,-53.878 529.8943,-27.8654 615.1371,-4.82 654.7907,20.6437 728.5761,-27.8654 769.7707,-54.9482 729.7603,-126.1633 765.8479,-136.5851"/>
<polygon fill="#000000" stroke="#000000" points="765.7181,-140.0961 776.0754,-137.8654 766.5876,-133.1503 765.7181,-140.0961"/>
</g>
<!-- lm_i_new -->
<!-- pose_est_i -->
<g id="node5" class="node">
<title>pose_est_i</title>
<ellipse fill="#add8e6" stroke="#000000" cx="86.3774" cy="-75.8654" rx="32.5568" ry="32.5568"/>
<text text-anchor="middle" x="86.3774" y="-73.9421" font-family="Verdana" font-size="10.00" fill="#000000">T_i PNP</text>
</g>
<!-- fr_j_r -->
<g id="node7" class="node">
<title>fr_j_r</title>
<path fill="#00ff00" stroke="#000000" d="M787.3474,-176.549C787.3474,-176.549 846.8035,-176.549 846.8035,-176.549 852.8035,-176.549 858.8035,-182.549 858.8035,-188.549 858.8035,-188.549 858.8035,-229.1818 858.8035,-229.1818 858.8035,-235.1818 852.8035,-241.1818 846.8035,-241.1818 846.8035,-241.1818 787.3474,-241.1818 787.3474,-241.1818 781.3474,-241.1818 775.3474,-235.1818 775.3474,-229.1818 775.3474,-229.1818 775.3474,-188.549 775.3474,-188.549 775.3474,-182.549 781.3474,-176.549 787.3474,-176.549"/>
<text text-anchor="middle" x="817.0754" y="-229.1818" font-family="Verdana" font-size="10.00" fill="#000000">kp_lm_ind </text>
<text text-anchor="middle" x="817.0754" y="-217.0285" font-family="Verdana" font-size="10.00" fill="#000000">  </text>
<polyline fill="none" stroke="#000000" points="775.3474,-208.8654 858.8035,-208.8654 "/>
<text text-anchor="middle" x="817.0754" y="-196.8654" font-family="Verdana" font-size="10.00" fill="#000000">kp_cand_ind </text>
<text text-anchor="middle" x="817.0754" y="-184.7121" font-family="Verdana" font-size="10.00" fill="#000000">  </text>
</g>
<!-- fr_j_l&#45;&gt;fr_j_r -->
<g id="edge4" class="edge">
<title>fr_j_l:M1_j&#45;&gt;fr_j_r:kp_lm_ind</title>
<path fill="none" stroke="#000000" d="M670.2718,-212.8654C713.4927,-212.8654 726.2485,-223.0637 764.7092,-224.6571"/>
<polygon fill="#000000" stroke="#000000" points="765.0071,-228.1637 775.0754,-224.8654 765.1478,-221.1652 765.0071,-228.1637"/>
</g>
<!-- fr_j_l&#45;&gt;fr_j_r -->
<g id="edge5" class="edge">
<title>fr_j_l:M2_j&#45;&gt;fr_j_r:kp_lm_ind</title>
<path fill="none" stroke="#000000" d="M670.2718,-232.8654C713.3371,-232.8654 726.3676,-226.0666 764.74,-225.0043"/>
<polygon fill="#000000" stroke="#000000" points="765.1234,-228.4995 775.0754,-224.8654 765.0293,-221.5002 765.1234,-228.4995"/>
</g>
<!-- fr_j_l&#45;&gt;fr_j_r -->
<g id="edge6" class="edge">
<title>fr_j_l:UM_j&#45;&gt;fr_j_r:kp_cand_ind</title>
<path fill="none" stroke="#000000" d="M670.2718,-192.8654C713.2122,-192.8654 726.4633,-192.8654 764.7647,-192.8654"/>
<polygon fill="#000000" stroke="#000000" points="765.0755,-196.3655 775.0754,-192.8654 765.0754,-189.3655 765.0755,-196.3655"/>
</g>
<!-- lm_j_new -->
<g id="node9" class="node">
<title>lm_j_new</title>
<polygon fill="#ffff00" stroke="#000000" points="608.2718,-164.1732 545.1626,-133.7115 671.381,-133.7115 608.2718,-164.1732"/>
<text text-anchor="middle" x="608.2718" y="-141.9421" font-family="Verdana" font-size="10.00" fill="#000000">new lm</text>
</g>
<!-- lm_j_new&#45;&gt;lm_j -->
<g id="edge10" class="edge">
<title>lm_j_new&#45;&gt;lm_j</title>
<path fill="none" stroke="#000000" d="M653.0654,-142.5783C686.9476,-141.6047 733.4262,-140.2691 768.2554,-139.2683"/>
<polygon fill="#000000" stroke="#000000" points="768.7683,-142.7551 778.6636,-138.9692 768.5672,-135.758 768.7683,-142.7551"/>
</g>
<!-- pose_est_j -->
<g id="node10" class="node">
<title>pose_est_j</title>
<ellipse fill="#add8e6" stroke="#000000" cx="608.2718" cy="-72.8654" rx="33.3992" ry="33.3992"/>
<text text-anchor="middle" x="608.2718" y="-70.9421" font-family="Verdana" font-size="10.00" fill="#000000">T_j PNP</text>
</g>
</g>
</svg>
