<?xml version="1.0" encoding="UTF-8" standalone="no"?>
<!DOCTYPE svg PUBLIC "-//W3C//DTD SVG 1.1//EN"
 "http://www.w3.org/Graphics/SVG/1.1/DTD/svg11.dtd">
<!-- Generated by graphviz version 2.40.1 (20161225.0304)
 -->
<!-- Title: structs Pages: 1 -->
<svg width="607pt" height="168pt"
 viewBox="0.00 0.00 607.34 167.96" xmlns="http://www.w3.org/2000/svg" xmlns:xlink="http://www.w3.org/1999/xlink">
<g id="graph0" class="graph" transform="scale(1 1) rotate(0) translate(4 163.9641)">
<title>structs</title>
<polygon fill="#ffffff" stroke="transparent" points="-4,4 -4,-163.9641 603.3389,-163.9641 603.3389,4 -4,4"/>
<!-- fr_i -->
<g id="node1" class="node">
<title>fr_i</title>
<polygon fill="none" stroke="#000000" points="0,-31.4641 0,-141.4641 245.9004,-141.4641 245.9004,-31.4641 0,-31.4641"/>
<text text-anchor="middle" x="122.9502" y="-126.2641" font-family="Times,serif" font-size="14.00" fill="#000000">fr_i</text>
<polyline fill="none" stroke="#000000" points="0,-119.4641 245.9004,-119.4641 "/>
<text text-anchor="middle" x="69.0415" y="-104.2641" font-family="Times,serif" font-size="14.00" fill="#000000">kp_m_prev_cand_ind</text>
<polyline fill="none" stroke="#000000" points="0,-97.4641 138.083,-97.4641 "/>
<text text-anchor="middle" x="69.0415" y="-82.2641" font-family="Times,serif" font-size="14.00" fill="#000000">kp_m_prev_lm_ind</text>
<polyline fill="none" stroke="#000000" points="0,-75.4641 138.083,-75.4641 "/>
<text text-anchor="middle" x="69.0415" y="-60.2641" font-family="Times,serif" font-size="14.00" fill="#000000"> </text>
<polyline fill="none" stroke="#000000" points="0,-53.4641 138.083,-53.4641 "/>
<text text-anchor="middle" x="69.0415" y="-38.2641" font-family="Times,serif" font-size="14.00" fill="#000000"> </text>
<polyline fill="none" stroke="#000000" points="138.083,-31.4641 138.083,-119.4641 "/>
<text text-anchor="middle" x="147.833" y="-71.2641" font-family="Times,serif" font-size="14.00" fill="#000000"> </text>
<polyline fill="none" stroke="#000000" points="157.583,-31.4641 157.583,-119.4641 "/>
<text text-anchor="middle" x="201.7417" y="-104.2641" font-family="Times,serif" font-size="14.00" fill="#000000">kp_cand_ind</text>
<polyline fill="none" stroke="#000000" points="157.583,-97.4641 245.9004,-97.4641 "/>
<text text-anchor="middle" x="201.7417" y="-82.2641" font-family="Times,serif" font-size="14.00" fill="#000000">kp_lm_ind</text>
<polyline fill="none" stroke="#000000" points="157.583,-75.4641 245.9004,-75.4641 "/>
<text text-anchor="middle" x="201.7417" y="-60.2641" font-family="Times,serif" font-size="14.00" fill="#000000"> </text>
<polyline fill="none" stroke="#000000" points="157.583,-53.4641 245.9004,-53.4641 "/>
<text text-anchor="middle" x="201.7417" y="-38.2641" font-family="Times,serif" font-size="14.00" fill="#000000">lm_ind</text>
</g>
<!-- fr_j -->
<g id="node2" class="node">
<title>fr_j</title>
<polygon fill="none" stroke="#000000" points="353.4385,-31.4641 353.4385,-141.4641 599.3389,-141.4641 599.3389,-31.4641 353.4385,-31.4641"/>
<text text-anchor="middle" x="476.3887" y="-126.2641" font-family="Times,serif" font-size="14.00" fill="#000000">fr_j</text>
<polyline fill="none" stroke="#000000" points="353.4385,-119.4641 599.3389,-119.4641 "/>
<text text-anchor="middle" x="422.48" y="-104.2641" font-family="Times,serif" font-size="14.00" fill="#000000">kp_m_prev_cand_ind</text>
<polyline fill="none" stroke="#000000" points="353.4385,-97.4641 491.5215,-97.4641 "/>
<text text-anchor="middle" x="422.48" y="-82.2641" font-family="Times,serif" font-size="14.00" fill="#000000">kp_m_prev_lm_ind</text>
<polyline fill="none" stroke="#000000" points="353.4385,-75.4641 491.5215,-75.4641 "/>
<text text-anchor="middle" x="422.48" y="-60.2641" font-family="Times,serif" font-size="14.00" fill="#000000"> </text>
<polyline fill="none" stroke="#000000" points="353.4385,-53.4641 491.5215,-53.4641 "/>
<text text-anchor="middle" x="422.48" y="-38.2641" font-family="Times,serif" font-size="14.00" fill="#000000">lm_ind_new</text>
<polyline fill="none" stroke="#000000" points="491.5215,-31.4641 491.5215,-119.4641 "/>
<text text-anchor="middle" x="501.2715" y="-71.2641" font-family="Times,serif" font-size="14.00" fill="#000000"> </text>
<polyline fill="none" stroke="#000000" points="511.0215,-31.4641 511.0215,-119.4641 "/>
<text text-anchor="middle" x="555.1802" y="-104.2641" font-family="Times,serif" font-size="14.00" fill="#000000">kp_cand_ind</text>
<polyline fill="none" stroke="#000000" points="511.0215,-97.4641 599.3389,-97.4641 "/>
<text text-anchor="middle" x="555.1802" y="-82.2641" font-family="Times,serif" font-size="14.00" fill="#000000">kp_lm_ind</text>
<polyline fill="none" stroke="#000000" points="511.0215,-75.4641 599.3389,-75.4641 "/>
<text text-anchor="middle" x="555.1802" y="-60.2641" font-family="Times,serif" font-size="14.00" fill="#000000"> </text>
<polyline fill="none" stroke="#000000" points="511.0215,-53.4641 599.3389,-53.4641 "/>
<text text-anchor="middle" x="555.1802" y="-38.2641" font-family="Times,serif" font-size="14.00" fill="#000000">lm_ind</text>
</g>
<!-- fr_i&#45;&gt;fr_j -->
<g id="edge1" class="edge">
<title>fr_i:kp_cand_ind&#45;&gt;fr_j:kp_m_prev_cand_ind</title>
<path fill="none" stroke="#000000" d="M245.9004,-108.4641C290.1478,-108.4641 303.6727,-108.4641 343.3597,-108.4641"/>
<polygon fill="#000000" stroke="#000000" points="343.4385,-111.9642 353.4385,-108.4641 343.4384,-104.9642 343.4385,-111.9642"/>
<text text-anchor="middle" x="299.6694" y="-111.2641" font-family="Times,serif" font-size="14.00" fill="#000000">triangulation</text>
</g>
<!-- fr_i&#45;&gt;fr_j -->
<g id="edge2" class="edge">
<title>fr_i:kp_lm_ind&#45;&gt;fr_j:kp_m_prev_lm_ind</title>
<path fill="none" stroke="#000000" d="M245.9004,-86.4641C290.1478,-86.4641 303.6727,-86.4641 343.3597,-86.4641"/>
<polygon fill="#000000" stroke="#000000" points="343.4385,-89.9642 353.4385,-86.4641 343.4384,-82.9642 343.4385,-89.9642"/>
<text text-anchor="middle" x="299.6694" y="-89.2641" font-family="Times,serif" font-size="14.00" fill="#000000">PnP</text>
</g>
<!-- fr_i&#45;&gt;fr_j -->
<g id="edge5" class="edge">
<title>fr_i:se&#45;&gt;fr_j:sw</title>
<path fill="none" stroke="#000000" d="M245.9004,-31.4641C285.3364,7.9719 450.1788,10.1286 503.3312,-24.9941"/>
<polygon fill="#000000" stroke="#000000" points="501.3999,-27.9321 511.3887,-31.4641 505.7827,-22.4739 501.3999,-27.9321"/>
</g>
<!-- fr_j&#45;&gt;fr_j -->
<g id="edge3" class="edge">
<title>fr_j:e&#45;&gt;fr_j:w</title>
<path fill="none" stroke="#000000" d="M491.3887,-108.4641C535.3887,-132.9641 535.3887,-159.9641 422.3887,-159.9641 317.334,-159.9641 309.9473,-79.5824 344.784,-48.5919"/>
<polygon fill="#000000" stroke="#000000" points="347.2734,-51.1159 353.3887,-42.4641 343.2128,-45.414 347.2734,-51.1159"/>
</g>
<!-- fr_j&#45;&gt;fr_j -->
<g id="edge4" class="edge">
<title>fr_j:s&#45;&gt;fr_j:s</title>
<path fill="none" stroke="#000000" d="M422.3887,-31.4641C378.3887,-24.9641 378.3887,-12.9641 488.8887,-12.9641 590.3242,-12.9641 598.6451,-23.0761 565.2918,-29.7631"/>
<polygon fill="#000000" stroke="#000000" points="564.6518,-26.3217 555.3887,-31.4641 565.8369,-33.2207 564.6518,-26.3217"/>
</g>
</g>
</svg>
